<?xml version="1.0" standalone="no"?><!DOCTYPE svg PUBLIC "-//W3C//DTD SVG 1.1//EN" "http://www.w3.org/Graphics/SVG/1.1/DTD/svg11.dtd"><svg t="1775470088405" class="icon" viewBox="0 0 1024 1024" version="1.1" xmlns="http://www.w3.org/2000/svg" p-id="5057" xmlns:xlink="http://www.w3.org/1999/xlink" width="200" height="200"><path d="M193.174606 827.379176c-41.983349-54.271159-54.424756-71.986084-63.999008-89.342616l-1.996769-3.737542a533.495731 533.495731 0 0 1-6.246303-11.57102 171.61974 171.61974 0 0 1-7.167889-15.359762c-8.908662-22.118057-10.598236-41.624955 3.583944-59.647076 24.831615-31.743508 65.17659-22.783647 99.172863 6.297503 21.91326 18.68771 54.578354 52.223191 74.494845 76.08202 13.055798 15.615758 36.863429 31.794707 54.271159 37.580218a42.495341 42.495341 0 0 0 5.119921 1.382379l9.113458-28.671556a376.416566 376.416566 0 0 1-95.691316-49.407234c-66.558968-47.922457-124.414072-141.975399-119.447749-213.705488 3.071952-45.311298 18.431714-89.752209 45.567294-132.91314a651.253906 651.253906 0 0 1-3.737542-63.384617c0-25.036412 8.191873-52.223191 23.910029-82.072328a33.842675 33.842675 0 0 1 28.978751-18.022121 299.668955 299.668955 0 0 1 81.816332 8.703865c23.295639 5.887909 47.922457 16.230148 73.982853 30.97552 39.013795-8.089475 76.79881-12.185411 113.457441-12.185411 36.709831 0 74.904439 4.095937 114.635024 12.23661 33.893875-18.994906 63.691813-31.897106 89.701009-38.6554 33.791476-8.755064 64.203805-6.143905 89.240217 9.318255a33.740277 33.740277 0 0 1 8.959861 8.089475c15.359762 19.865292 23.85883 46.232883 26.623587 78.744379 2.150367 24.780416 1.382379 49.407234-2.303964 73.829256 22.169256 33.330683 36.607433 75.928423 43.724122 127.486024 11.571021 84.171495-26.879583 170.851752-87.960236 220.770978-28.466759 23.24444-67.582952 41.471357-117.45098 55.295143 3.174351 11.059029 5.427116 22.066858 6.758296 33.074687 2.252765 18.124519 3.83994 66.763765 4.915123 147.965707 56.421525-29.388344 100.196847-58.367095 131.325965-86.782655 52.991179-48.280852 92.92656-116.78539 118.935756-196.348957 21.759663-66.558968 25.957998-122.724498 15.206165-184.624338-13.158196-75.262833-32.101902-136.650682-60.619861-185.904319-33.381883-57.650306-86.629057-112.126262-150.32087-151.959244-60.927056-38.194608-159.741524-63.743012-237.564318-63.743012-81.713933 0-173.155716 26.46999-242.53064 75.416431-67.480554 47.615262-123.390087 119.294151-155.799185 189.590661-25.650802 55.704737-36.197839 115.044617-36.197839 202.646459 0 70.9621 25.8044 157.181564 56.216728 211.145527 24.012428 42.59774 58.111099 82.942714 108.235123 126.769236 25.241209 22.118057 60.927056 44.184915 107.006341 65.995777v-21.657265c-61.695044-14.335778-110.743883-44.236114-145.917738-89.701009z m-18.278117-149.604082a10.086244 10.086244 0 0 0 0-0.255996v0.255996z m71.934885 108.644716c29.183548 37.836214 72.24208 61.029454 131.069969 69.630921a33.689078 33.689078 0 0 1 28.825153 33.279484v101.016035a33.791476 33.791476 0 0 1-46.744876 31.026719c-75.518829-31.026719-132.964339-63.487016-172.592525-98.148879-55.602338-48.639246-94.564934-94.82093-122.5709-144.381762C29.081149 715.304113 0 618.07682 0 534.775711 0 438.265207 12.185411 369.65827 42.341744 304.225685c37.068225-80.485152 100.299245-161.482297 178.173238-216.419046C301.768123 30.463528 406.880093 0 502.059418 0c90.110603 0 201.366479 28.773954 273.659758 74.034052 72.90767 45.669692 133.937124 108.081525 172.848521 175.306083 33.228285 57.291912 54.322358 125.591653 68.658136 207.971177 12.697403 72.754072 7.679881 139.97863-17.458929 216.828639-29.388344 89.752209-75.109236 168.189393-137.521069 225.12291-45.1577 41.164162-110.385489 81.457937-195.939363 121.495717a33.791476 33.791476 0 0 1-48.229652-30.105133c-1.023984-110.027095-2.713558-175.818075-4.966323-193.942594a167.626202 167.626202 0 0 0-15.206165-50.636015 33.53548 33.53548 0 0 1 23.551635-47.052071c58.571892-12.441407 100.760038-29.69554 126.46204-50.687214 43.775321-35.788245 72.190881-99.838453 63.947809-159.741524-6.553498-47.410465-19.814093-83.24991-39.116194-107.927927a33.433082 33.433082 0 0 1-6.502299-27.13558c4.607929-23.039643 5.887909-46.232883 3.839941-69.733319-1.433578-16.690941-4.710327-29.285946-9.369455-37.989811-7.423885-2.457562-17.458929-2.355163-31.026719 1.177582-22.015659 5.683112-50.175222 18.431714-83.966699 38.143409a33.996273 33.996273 0 0 1-24.678017 3.83994 513.835236 513.835236 0 0 0-112.740653-13.362993c-35.48105 0-72.702873 4.403132-111.563071 13.311794a33.996273 33.996273 0 0 1-25.190009-4.044738c-25.087611-15.154965-47.615262-25.19001-67.275757-30.105133-13.823786-3.481546-28.159564-5.631913-42.853736-6.4511-5.17112 12.851001-7.679881 23.756432-7.679881 32.665094 0 17.510129 1.535976 40.242576 4.607929 67.992546a33.433082 33.433082 0 0 1-5.529515 22.374053c-24.985213 37.068225-38.501803 73.778056-41.010564 110.539087-3.174351 45.311298 42.290544 119.140553 91.646579 154.672802 30.463528 21.96446 66.149375 38.399405 107.159939 49.253637a33.586679 33.586679 0 0 1 23.551635 42.54654l-25.7532 81.253141a33.689078 33.689078 0 0 1-20.172488 21.29887c-20.530882 7.782279-42.495341 7.782279-64.511 0.511992-29.285946-9.727849-63.691813-33.125887-84.837085-58.418295a549.521082 549.521082 0 0 0-18.124519-20.479682c6.963092 9.215857 15.46216 20.274886 26.009197 33.893874z" fill="#555555" p-id="5058"></path></svg>